<?xml version="1.0" encoding="utf-8"?>
<!-- Generator: Adobe Illustrator 23.0.3, SVG Export Plug-In . SVG Version: 6.00 Build 0)  -->
<svg version="1.1" id="Layer_1" xmlns="http://www.w3.org/2000/svg" xmlns:xlink="http://www.w3.org/1999/xlink" x="0px" y="0px"
	 viewBox="0 0 99.2 99.2" style="enable-background:new 0 0 99.2 99.2;" xml:space="preserve">
<style type="text/css">
	.st0{fill:url(#SVGID_1_);}
	.st1{fill:url(#SVGID_2_);}
	.st2{fill:url(#SVGID_3_);}
</style>
<g>
	
		<linearGradient id="SVGID_1_" gradientUnits="userSpaceOnUse" x1="-291.4295" y1="489.3425" x2="-282.5338" y2="480.454" gradientTransform="matrix(9.8882 0 0 9.88 2883.7661 -4737.708)">
		<stop  offset="0" style="stop-color:#FFD521"/>
		<stop  offset="5.000000e-02" style="stop-color:#FFD521"/>
		<stop  offset="0.5011" style="stop-color:#F50000"/>
		<stop  offset="0.95" style="stop-color:#B900B4"/>
		<stop  offset="0.9501" style="stop-color:#B900B4"/>
		<stop  offset="1" style="stop-color:#B900B4"/>
	</linearGradient>
	<path class="st0" d="M81.3,23.8c0-3.2-2.6-5.8-5.8-5.8c-3.2,0-5.8,2.6-5.8,5.8c0,3.2,2.6,5.8,5.8,5.8C78.7,29.6,81.3,27,81.3,23.8"
		/>
	
		<linearGradient id="SVGID_2_" gradientUnits="userSpaceOnUse" x1="-253.3151" y1="451.2134" x2="-244.4156" y2="442.314" gradientTransform="matrix(9.8841 0 0 9.8841 2505.8579 -4362.6987)">
		<stop  offset="0" style="stop-color:#FFD521"/>
		<stop  offset="5.000000e-02" style="stop-color:#FFD521"/>
		<stop  offset="0.5011" style="stop-color:#F50000"/>
		<stop  offset="0.95" style="stop-color:#B900B4"/>
		<stop  offset="0.9501" style="stop-color:#B900B4"/>
		<stop  offset="1" style="stop-color:#B900B4"/>
	</linearGradient>
	<path class="st1" d="M89,69.2c-0.2,4.7-1,7.3-1.7,9c-0.9,2.3-1.9,3.9-3.6,5.6c-1.7,1.7-3.3,2.7-5.6,3.6c-1.7,0.7-4.3,1.5-9,1.7
		c-5.1,0.2-6.6,0.3-19.6,0.3c-12.9,0-14.5,0-19.6-0.3c-4.7-0.2-7.3-1-9-1.7c-2.3-0.9-3.9-1.9-5.6-3.6c-1.7-1.7-2.8-3.3-3.6-5.6
		c-0.7-1.7-1.5-4.3-1.7-9c-0.2-5.1-0.3-6.6-0.3-19.6c0-12.9,0-14.5,0.3-19.6c0.2-4.7,1-7.3,1.7-9c0.9-2.3,1.9-3.9,3.6-5.6
		c1.7-1.7,3.3-2.7,5.6-3.6c1.7-0.7,4.3-1.4,9-1.7c5.1-0.2,6.6-0.3,19.6-0.3c12.9,0,14.5,0.1,19.6,0.3c4.7,0.2,7.3,1,9,1.7
		c2.3,0.9,3.9,1.9,5.6,3.6c1.7,1.7,2.8,3.3,3.6,5.6c0.7,1.7,1.4,4.3,1.7,9c0.2,5.1,0.3,6.6,0.3,19.6C89.3,62.5,89.2,64.1,89,69.2
		L89,69.2z M97.7,29.6c-0.2-5.2-1.1-8.7-2.3-11.8c-1.2-3.2-2.9-5.9-5.6-8.6c-2.7-2.7-5.4-4.3-8.6-5.6c-3.1-1.2-6.6-2-11.8-2.2
		c-5.2-0.2-6.8-0.3-20-0.3c-13.1,0-14.8,0-20,0.3c-5.1,0.2-8.7,1-11.8,2.2C14.7,5,12,6.6,9.3,9.3C6.6,12,5,14.7,3.7,17.9
		c-1.2,3.1-2,6.6-2.3,11.8c-0.2,5.2-0.3,6.8-0.3,20c0,13.1,0.1,14.8,0.3,20c0.2,5.1,1.1,8.7,2.3,11.8c1.2,3.2,2.9,5.9,5.6,8.6
		c2.7,2.7,5.4,4.3,8.6,5.6c3.1,1.2,6.6,2,11.8,2.2c5.2,0.2,6.8,0.3,20,0.3c13.2,0,14.8-0.1,20-0.3c5.2-0.2,8.7-1.1,11.8-2.2
		c3.2-1.2,5.9-2.9,8.6-5.6c2.7-2.7,4.3-5.4,5.6-8.6c1.2-3.1,2-6.6,2.3-11.8c0.2-5.2,0.3-6.8,0.3-20C98,36.5,98,34.8,97.7,29.6
		L97.7,29.6z"/>
	
		<linearGradient id="SVGID_3_" gradientUnits="userSpaceOnUse" x1="-266.382" y1="464.2809" x2="-257.4858" y2="455.3826" gradientTransform="matrix(9.8829 0 0 9.8853 2634.7195 -4492.4092)">
		<stop  offset="0" style="stop-color:#FFD521"/>
		<stop  offset="5.000000e-02" style="stop-color:#FFD521"/>
		<stop  offset="0.5011" style="stop-color:#F50000"/>
		<stop  offset="0.95" style="stop-color:#B900B4"/>
		<stop  offset="0.9501" style="stop-color:#B900B4"/>
		<stop  offset="1" style="stop-color:#B900B4"/>
	</linearGradient>
	<path class="st2" d="M49.6,65.7c-8.9,0-16.1-7.2-16.1-16.1c0-8.9,7.2-16.1,16.1-16.1c8.9,0,16.1,7.2,16.1,16.1
		C65.7,58.5,58.5,65.7,49.6,65.7z M49.6,24.7c-13.7,0-24.9,11.1-24.9,24.9c0,13.7,11.1,24.9,24.9,24.9s24.9-11.1,24.9-24.9
		C74.5,35.9,63.3,24.7,49.6,24.7z"/>
</g>
</svg>
