<?xml version="1.0" encoding="utf-8"?>
<!-- Generator: Adobe Illustrator 23.0.3, SVG Export Plug-In . SVG Version: 6.00 Build 0)  -->
<svg version="1.1" id="Layer_1" xmlns="http://www.w3.org/2000/svg" xmlns:xlink="http://www.w3.org/1999/xlink" x="0px" y="0px"
	 viewBox="0 0 944.3 464.4" style="enable-background:new 0 0 944.3 464.4;" xml:space="preserve">
<style type="text/css">
	.st0{fill:#05705A;}
</style>
<g>
	<g>
		<path class="st0" d="M550.6,161.7v223.2h-90.8V79.5h115.9c34.9,0,62.2,8.9,81.9,26.4c21.9,19.7,32.7,44.8,32.7,74.3
			c0,30.8-13,56.8-40.6,77.8l52.4,125.7h-95.3l-43.2-98.4v-78.8h7.6c18.7,0,28.6-7.6,28.6-24.1c0-14.3-10.8-21.9-32.7-21.9h-16.5
			V161.7z"/>
		<path class="st0" d="M814.2,282.4v-78.1c18.3,0,26.6-6.5,26.6-20.1c0-12.7-6.5-19.2-20.1-19.2c-13.6,0-20.1,8.7-20.1,25.7v194.3
			h-88.6V199.1c0-19.2,2.2-35.3,5.3-47.1c4.3-11.8,10.5-23.5,19.2-34.1c10.5-11.8,23.5-21.4,39.7-27.9c16.1-6.5,31.9-10.5,48-10.5
			c30.1,0,55.5,10.5,75.9,31c20.4,20.4,31,45.9,31,75.9c0,28.8-9.6,53.3-27.9,71.6c-17,17-42.8,24.5-75.9,24.5H814.2z"/>
	</g>
	<g>
		<g>
			<path class="st0" d="M214.3,429.6c-2.6,0-5.8,0-8.4,0C102.1,425.3,17.5,337,17,233.2C15.9,129,96.9,41.6,200.5,34.9
				c1.5,0,3.2,0.5,4.8,1.5c1.1,1.1,2.1,2.6,2.1,4.3V64c0,3.7,1.5,6.9,4.3,9.1l14.9,12.7c4.8,4.3,8,10,7.4,16.9l-0.5,15.4
				c0,1.1,0.5,2.1,1.5,3.2c0.5,0.5,1.5,1.1,2.6,1.1h9.5c20.6,0.5,38.7,12.1,46.5,29.6c0.5,1.1,1.1,2.6,1.5,3.7
				c0.5,1.5,1.1,3.2,0.5,5.2v3.7c0,5.2,2.6,10.6,8,13.2c3.2,1.5,6.3,4.3,8.4,6.9c3.2,3.7,8,5.2,13.2,5.2c4.8,0,9.5,0,13.8,0.5
				c5.8,1.1,12.1,4.3,18.6,9.5c3.7,3.2,6.9,6.9,9.5,11.1c3.7,6.3,6.3,13.2,8,21.2c0.5,2.1,2.1,3.7,3.7,3.7l27,1.1
				c1.5,0,3.2,1.1,4.3,2.1c1.1,1.1,1.5,2.6,1.5,4.3l0,0C405.3,348,318.1,429.6,214.3,429.6z M197.9,44.4
				c-97.3,8.4-172.4,90.4-171.9,188.8S107.4,415.7,205.9,420c101,4.3,188.4-73.5,195.7-173.5l-23.3-1.1c-6.3-0.5-11.7-5.2-12.7-11.7
				c-1.1-6.3-3.2-12.1-6.3-17.5c-2.1-3.2-4.8-6.3-8-9.1c-5.2-4.3-9.5-6.9-14.3-7.4c-3.7-0.5-7.4-0.5-11.7-0.5
				c-8,0.5-15.8-3.2-20.6-8.4c-1.5-1.5-3.2-3.2-5.8-4.3c-8.4-4.8-13.2-13.2-13.2-22.3v-3.7c0-0.5,0-1.1,0-1.5c0-1.5,0-2.6-0.5-3.7
				c-6.3-14.3-21.2-23.8-38.1-23.8h-9.5c-3.2,0-6.3-1.1-9.1-3.7c-3.2-2.6-4.8-6.3-4.3-10.6l0.5-15.4c0-3.7-1.5-6.9-4.3-9.5
				l-14.9-12.7c-4.8-4.3-7.4-10-7.4-16.4v-19H197.9z M201.6,44.4L201.6,44.4L201.6,44.4z"/>
		</g>
		<g>
			<path class="st0" d="M146.6,172.4c-13.8,0-24.9-11.1-24.9-24.9s11.1-24.9,24.9-24.9s24.9,11.1,24.9,24.9S159.8,172.4,146.6,172.4
				z M146.6,131.6c-8.4,0-15.4,6.9-15.4,15.4s6.9,15.4,15.4,15.4s15.4-6.9,15.4-15.4S155,131.6,146.6,131.6z"/>
		</g>
		<g>
			<path class="st0" d="M151.8,238c-8.4,0-15.4-6.9-15.4-15.4c0-8.4,6.9-15.4,15.4-15.4s15.4,6.9,15.4,15.4
				C167.2,231.1,160.9,238,151.8,238z M151.8,216.8c-3.2,0-5.8,2.6-5.8,5.8c0,3.2,2.6,5.8,5.8,5.8s5.8-2.6,5.8-5.8
				C157.7,219.5,155.5,216.8,151.8,216.8z"/>
		</g>
		<g>
			<path class="st0" d="M219.1,258.1c-8,0-14.9-6.3-14.9-14.9c0-8.6,6.3-14.9,14.9-14.9c8,0,14.9,6.3,14.9,14.9
				C234,251.8,227.5,258.1,219.1,258.1z M219.1,238c-2.6,0-5.2,2.1-5.2,5.2c0,3.2,2.1,5.2,5.2,5.2c2.6,0,5.2-2.1,5.2-5.2
				C224.4,240.1,222.3,238,219.1,238z"/>
		</g>
		<g>
			<path class="st0" d="M294.7,297.8c-14.3,0-25.9-11.7-25.9-25.9s11.7-25.9,25.9-25.9s25.9,11.7,25.9,25.9
				C320.7,286.2,309,297.8,294.7,297.8z M294.7,255.5c-9.1,0-16.4,7.4-16.4,16.4c0,9.1,7.4,16.4,16.4,16.4c9.1,0,16.4-7.4,16.4-16.4
				C311.2,262.8,304.3,255.5,294.7,255.5z"/>
		</g>
		<g>
			<path class="st0" d="M271.4,344.4c-6.9,0-12.7-5.8-12.7-12.7c0-6.9,5.8-12.7,12.7-12.7c6.9,0,12.7,5.8,12.7,12.7
				C284.2,338.5,278.3,344.4,271.4,344.4z M271.4,328.4c-1.5,0-3.2,1.5-3.2,3.2c0,1.7,1.5,3.2,3.2,3.2c1.7,0,3.2-1.5,3.2-3.2
				C274.6,330.1,273.6,328.4,271.4,328.4z"/>
		</g>
		<g>
			<path class="st0" d="M127.6,345.9c-7.4,0-13.8-5.8-13.8-13.8c0-7.4,5.8-13.8,13.8-13.8c7.4,0,13.8,5.8,13.8,13.8
				C140.8,340.1,134.9,345.9,127.6,345.9z M127.6,328.4c-2.1,0-4.3,1.5-4.3,4.3c0,2.1,1.5,4.3,4.3,4.3c2.1,0,4.3-1.5,4.3-4.3
				C131.2,330.5,129.7,328.4,127.6,328.4z"/>
		</g>
		<g>
			<path class="st0" d="M103.8,296.1c-14.9,0-27-12.1-27-27c0-14.9,12.1-27,27-27s27,12.1,27,27C130.8,284,119.1,296.1,103.8,296.1z
				 M103.8,251.8c-9.5,0-17.5,8-17.5,17.5c0,9.5,8,17.5,17.5,17.5s17.5-8,17.5-17.5C121.1,259.6,113.7,251.8,103.8,251.8z"/>
		</g>
		<g>
			<path class="st0" d="M200.5,375.1c-13.2,0-23.8-10.6-23.8-23.8c0-13.2,10.6-23.8,23.8-23.8c13.2,0,23.8,10.6,23.8,23.8
				C223.8,364.5,213.2,375.1,200.5,375.1z M200.5,337.4c-8,0-14.3,6.3-14.3,14.3s6.3,14.3,14.3,14.3c8,0,14.3-6.3,14.3-14.3
				C214.3,343.7,208.5,337.4,200.5,337.4z"/>
		</g>
	</g>
</g>
</svg>
