<?xml version="1.0" encoding="utf-8"?>
<!-- Generator: Adobe Illustrator 23.0.3, SVG Export Plug-In . SVG Version: 6.00 Build 0)  -->
<svg version="1.1" id="Layer_1" xmlns="http://www.w3.org/2000/svg" xmlns:xlink="http://www.w3.org/1999/xlink" x="0px" y="0px"
	 viewBox="0 0 1080 270.6" style="enable-background:new 0 0 1080 270.6;" xml:space="preserve">
<style type="text/css">
	.st0{fill:#05705A;}
</style>
<g>
	<g>
		<g>
			<g>
				<path class="st0" d="M144,263.9c-1.7,0-3.8,0-5.5,0c-67.6-2.8-122.7-60.3-123-127.9C14.8,68.1,67.5,11.2,135,6.8
					c1,0,2.1,0.3,3.1,1c0.7,0.7,1.4,1.7,1.4,2.8v15.2c0,2.4,1,4.5,2.8,5.9L152,40c3.1,2.8,5.2,6.5,4.8,11l-0.3,10
					c0,0.7,0.3,1.4,1,2.1c0.3,0.3,1,0.7,1.7,0.7h6.2c13.4,0.3,25.2,7.9,30.3,19.3c0.3,0.7,0.7,1.7,1,2.4c0.3,1,0.7,2.1,0.3,3.4v2.4
					c0,3.4,1.7,6.9,5.2,8.6c2.1,1,4.1,2.8,5.5,4.5c2.1,2.4,5.2,3.4,8.6,3.4c3.1,0,6.2,0,9,0.3c3.8,0.7,7.9,2.8,12.1,6.2
					c2.4,2.1,4.5,4.5,6.2,7.2c2.4,4.1,4.1,8.6,5.2,13.8c0.3,1.4,1.4,2.4,2.4,2.4l17.6,0.7c1,0,2.1,0.7,2.8,1.4c0.7,0.7,1,1.7,1,2.8
					l0,0C268.4,210.8,211.6,263.9,144,263.9z M133.3,13C69.9,18.5,21,71.9,21.3,136s53.1,118.9,117.2,121.7
					c65.8,2.8,122.7-47.9,127.5-113l-15.2-0.7c-4.1-0.3-7.6-3.4-8.3-7.6c-0.7-4.1-2.1-7.9-4.1-11.4c-1.4-2.1-3.1-4.1-5.2-5.9
					c-3.4-2.8-6.2-4.5-9.3-4.8c-2.4-0.3-4.8-0.3-7.6-0.3c-5.2,0.3-10.3-2.1-13.4-5.5c-1-1-2.1-2.1-3.8-2.8
					c-5.5-3.1-8.6-8.6-8.6-14.5v-2.4c0-0.3,0-0.7,0-1c0-1,0-1.7-0.3-2.4c-4.1-9.3-13.8-15.5-24.8-15.5h-6.2c-2.1,0-4.1-0.7-5.9-2.4
					c-2.1-1.7-3.1-4.1-2.8-6.9l0.3-10c0-2.4-1-4.5-2.8-6.2l-9.7-8.3c-3.1-2.8-4.8-6.5-4.8-10.7V13H133.3z M135.7,13L135.7,13
					L135.7,13z"/>
			</g>
			<g>
				<path class="st0" d="M99.9,96.4c-9,0-16.2-7.2-16.2-16.2S90.9,64,99.9,64s16.2,7.2,16.2,16.2S108.5,96.4,99.9,96.4z M99.9,69.8
					c-5.5,0-10,4.5-10,10s4.5,10,10,10s10-4.5,10-10S105.4,69.8,99.9,69.8z"/>
			</g>
			<g>
				<path class="st0" d="M103.3,139.1c-5.5,0-10-4.5-10-10s4.5-10,10-10s10,4.5,10,10S109.2,139.1,103.3,139.1z M103.3,125.3
					c-2.1,0-3.8,1.7-3.8,3.8s1.7,3.8,3.8,3.8s3.8-1.7,3.8-3.8C107.1,127.1,105.7,125.3,103.3,125.3z"/>
			</g>
			<g>
				<path class="st0" d="M147.1,152.2c-5.2,0-9.7-4.1-9.7-9.7s4.1-9.7,9.7-9.7c5.2,0,9.7,4.1,9.7,9.7S152.6,152.2,147.1,152.2z
					 M147.1,139.1c-1.7,0-3.4,1.4-3.4,3.4c0,2.1,1.4,3.4,3.4,3.4c1.7,0,3.4-1.4,3.4-3.4C150.6,140.5,149.2,139.1,147.1,139.1z"/>
			</g>
			<g>
				<path class="st0" d="M196.4,178.1c-9.3,0-16.9-7.6-16.9-16.9c0-9.3,7.6-16.9,16.9-16.9c9.3,0,16.9,7.6,16.9,16.9
					C213.3,170.5,205.7,178.1,196.4,178.1z M196.4,150.5c-5.9,0-10.7,4.8-10.7,10.7s4.8,10.7,10.7,10.7s10.7-4.8,10.7-10.7
					C207.1,155.3,202.6,150.5,196.4,150.5z"/>
			</g>
			<g>
				<path class="st0" d="M181.2,208.4c-4.5,0-8.3-3.8-8.3-8.3s3.8-8.3,8.3-8.3s8.3,3.8,8.3,8.3C189.5,204.6,185.7,208.4,181.2,208.4
					z M181.2,198c-1,0-2.1,1-2.1,2.1s1,2.1,2.1,2.1s2.1-1,2.1-2.1C183.3,199.1,182.6,198,181.2,198z"/>
			</g>
			<g>
				<path class="st0" d="M87.5,209.4c-4.8,0-9-3.8-9-9c0-4.8,3.8-9,9-9c4.8,0,9,3.8,9,9C96.1,205.6,92.3,209.4,87.5,209.4z
					 M87.5,198c-1.4,0-2.8,1-2.8,2.8c0,1.4,1,2.8,2.8,2.8c1.4,0,2.8-1,2.8-2.8C89.9,199.4,88.9,198,87.5,198z"/>
			</g>
			<g>
				<path class="st0" d="M72,177c-9.7,0-17.6-7.9-17.6-17.6s7.9-17.6,17.6-17.6s17.6,7.9,17.6,17.6S82,177,72,177z M72,148.1
					c-6.2,0-11.4,5.2-11.4,11.4s5.2,11.4,11.4,11.4c6.2,0,11.4-5.2,11.4-11.4C83.3,153.2,78.5,148.1,72,148.1z"/>
			</g>
			<g>
				<path class="st0" d="M135,228.4c-8.6,0-15.5-6.9-15.5-15.5s6.9-15.5,15.5-15.5s15.5,6.9,15.5,15.5
					C150.2,221.5,143.3,228.4,135,228.4z M135,203.9c-5.2,0-9.3,4.1-9.3,9.3s4.1,9.3,9.3,9.3s9.3-4.1,9.3-9.3
					C144,208,140.2,203.9,135,203.9z"/>
			</g>
		</g>
		<g>
			<path class="st0" d="M353.9,107.1v70.3h-28.6V81.2h36.5c11,0,19.6,2.8,25.8,8.3c6.9,6.2,10.3,14.1,10.3,23.4
				c0,9.7-4.1,17.9-12.8,24.5l16.5,39.6h-30L358,146v-24.8h2.4c5.9,0,9-2.4,9-7.6c0-4.5-3.4-6.9-10.3-6.9h-5.2V107.1z"/>
			<path class="st0" d="M478.3,146.4h-39.6c-0.7-2.1-1-3.8-1-5.5c0-2.4,0.3-4.5,1.4-6.9h13.4c-1-5.2-3.8-7.9-9-7.9
				c-3.4,0-5.9,1.4-7.9,4.1c-2.1,2.8-3.1,6.2-3.1,10.7s1,8.3,3.1,11c2.1,2.8,4.5,4.1,7.9,4.1c2.8,0,5.2-1.4,7.6-3.8l14.8,17.9
				c-6.9,5.5-14.8,8.3-23.4,8.3c-10.3,0-19.3-3.4-26.2-10.3c-6.9-6.9-10.7-15.5-10.7-25.8s3.4-19,10.7-25.8
				c7.2-7.2,15.9-10.7,26.2-10.7c10.3,0,18.6,3.4,25.5,10.3s10.3,15.5,10.3,25.5C478.7,142.6,478.7,144.3,478.3,146.4z"/>
			<path class="st0" d="M532.4,145l26.2-1c-0.7,10-4.5,18.6-11.4,24.8c-6.9,6.5-15.2,9.7-24.8,9.7c-10.3,0-19-3.4-26.2-10.7
				c-7.2-7.2-10.7-15.9-10.7-26.5c0-10,3.4-18.3,10.7-25.5c7.2-6.9,15.9-10.7,25.8-10.7c8.6,0,16.5,2.8,23.1,8.3s11,12.8,12.4,21
				l-26.5,1c-2.4-3.1-5.2-4.5-8.6-4.5c-3.1,0-5.5,1-7.2,3.1s-2.8,4.5-2.8,7.6s1,5.5,3.1,7.6s4.5,3.1,7.6,3.1
				C527.3,152.9,530.7,150.1,532.4,145z"/>
			<path class="st0" d="M596.2,107.1v70H570v-70C570,107.1,596.2,107.1,596.2,107.1z M583.1,76c3.4,0,6.5,1.4,9.3,3.8s3.8,5.5,3.8,9
				c0,3.8-1.4,6.5-3.8,9c-2.4,2.4-5.5,3.4-9.3,3.4s-6.9-1-9.3-3.4c-2.4-2.4-3.8-5.2-3.8-9c0-3.4,1.4-6.5,3.8-9
				C576.5,77.1,579.6,76,583.1,76z"/>
			<path class="st0" d="M644.8,144.3v-25.2c5.9,0,8.6-2.1,8.6-6.5c0-4.1-2.1-6.2-6.5-6.2s-6.5,2.8-6.5,8.3v62.7h-28.6v-60
				c0-6.2,0.7-11.4,1.7-15.2c1.4-3.8,3.4-7.6,6.2-11c3.4-3.8,7.6-6.9,12.8-9s10.3-3.4,15.5-3.4c9.7,0,17.9,3.4,24.5,10
				s10,14.8,10,24.5c0,9.3-3.1,17.2-9,23.1c-5.5,5.5-13.8,7.9-24.5,7.9H644.8z"/>
			<path class="st0" d="M761.6,146.4h-40c-0.7-2.1-1-3.8-1-5.5c0-2.4,0.3-4.5,1.4-6.9h13.4c-1-5.2-3.8-7.9-8.6-7.9
				c-3.4,0-5.9,1.4-7.9,4.1c-2.1,2.8-3.1,6.2-3.1,10.7s1,8.3,3.1,11c2.1,2.8,4.5,4.1,7.9,4.1c2.8,0,5.2-1.4,7.6-3.8l14.8,17.9
				c-6.9,5.5-14.8,8.3-23.4,8.3c-10.3,0-19.3-3.4-26.2-10.3c-6.9-6.9-10.7-15.5-10.7-25.8s3.4-19,10.7-25.8
				c7.2-7.2,15.9-10.7,26.2-10.7s18.6,3.4,25.5,10.3s10.3,15.5,10.3,25.5C762,142.6,761.6,144.3,761.6,146.4z"/>
			<path class="st0" d="M810.9,106.4v28.3c-1.7-1-3.4-1.4-4.8-1.4c-4.8,0-7.2,3.8-7.2,11v33.4h-26.2v-38.6c0-10,2.8-18.3,8.3-24.1
				c5.5-5.9,12.8-9,22.1-9C805,105.7,807.8,106,810.9,106.4z"/>
			<path class="st0" d="M856.7,122.9v27.6H845v26.9h-26.2v-59.6c0-6.5,1-12.4,3.4-17.2c2.8-6.2,7.2-11,13.1-14.8
				c5.9-3.8,12.1-5.9,18.6-5.9h2.8v27.6c-0.7,0-1,0-1.4,0c-3.4,0-5.9,1-7.6,3.4c-1.7,2.1-2.8,5.2-2.8,9.3v2.4h11.7v0.3
				C856.6,122.9,856.7,122.9,856.7,122.9z"/>
			<path class="st0" d="M937,146.4h-40c-0.7-2.1-1-3.8-1-5.5c0-2.4,0.3-4.5,1.4-6.9h13.4c-1-5.2-3.8-7.9-8.6-7.9
				c-3.4,0-5.9,1.4-7.9,4.1c-2.1,2.8-3.1,6.2-3.1,10.7s1,8.3,3.1,11c2.1,2.8,4.5,4.1,7.9,4.1c2.8,0,5.2-1.4,7.6-3.8l14.8,17.9
				c-6.9,5.5-14.8,8.3-23.4,8.3c-10.3,0-19.3-3.4-26.2-10.3c-6.9-6.9-10.7-15.5-10.7-25.8s3.4-19,10.7-25.8
				c7.2-7.2,15.9-10.7,26.2-10.7s18.6,3.4,25.5,10.3s10.3,15.5,10.3,25.5C937.4,142.6,937.4,144.3,937,146.4z"/>
			<path class="st0" d="M991.1,145l26.2-1c-0.7,10-4.5,18.6-11.4,24.8c-6.9,6.5-15.2,9.7-24.8,9.7c-10.3,0-19-3.4-26.2-10.7
				s-10.7-15.9-10.7-26.5c0-10,3.4-18.3,10.7-25.5c7.2-6.9,15.9-10.7,25.8-10.7c8.6,0,16.5,2.8,23.1,8.3c6.5,5.5,11,12.8,12.4,21
				l-26.5,1c-2.4-3.1-5.2-4.5-8.6-4.5c-3.1,0-5.5,1-7.2,3.1s-2.8,4.5-2.8,7.6s1,5.5,3.1,7.6s4.5,3.1,7.6,3.1
				C986,152.9,989.1,150.1,991.1,145z"/>
			<path class="st0" d="M1052.1,81.2v26.9h11.7V136h-11.7c0,5.5,1,9.3,2.8,11.4c1.7,2.1,4.8,3.1,9.7,3.1v27.6c-1.4,0-2.4,0-3.1,0
				c-5.9,0-11.7-1.4-16.9-4.1c-5.2-2.8-9.7-6.5-12.8-11.4c-4.1-6.2-6.2-14.1-6.2-24.1V81.2H1052.1z"/>
		</g>
	</g>
</g>
</svg>
