<?xml version="1.0" encoding="utf-8"?>
<!-- Generator: Adobe Illustrator 23.0.3, SVG Export Plug-In . SVG Version: 6.00 Build 0)  -->
<svg version="1.1" id="Layer_1" xmlns="http://www.w3.org/2000/svg" xmlns:xlink="http://www.w3.org/1999/xlink" x="0px" y="0px"
	 viewBox="0 0 99.2 99.2" style="enable-background:new 0 0 99.2 99.2;" xml:space="preserve">
<style type="text/css">
	.st0{fill:#E60023;}
</style>
<path class="st0" d="M49.6,0.9C22.7,0.9,0.9,22.7,0.9,49.6c0,20.6,12.8,38.3,30.9,45.4c-0.4-3.8-0.8-9.8,0.2-14
	c0.9-3.8,5.7-24.2,5.7-24.2s-1.4-2.9-1.4-7.2c0-6.8,3.9-11.8,8.8-11.8c4.2,0,6.2,3.1,6.2,6.9c0,4.2-2.6,10.4-4,16.2
	c-1.2,4.8,2.4,8.8,7.2,8.8c8.7,0,15.3-9.1,15.3-22.3c0-11.7-8.4-19.8-20.4-19.8c-13.9,0-22,10.4-22,21.1c0,4.2,1.6,8.7,3.6,11.1
	c0.4,0.5,0.4,0.9,0.3,1.4c-0.4,1.5-1.2,4.8-1.4,5.5c-0.2,0.9-0.7,1.1-1.6,0.6c-6.1-2.8-9.9-11.7-9.9-18.9C18.4,33.1,29.5,19,50.6,19
	c16.9,0,30,12,30,28.1c0,16.8-10.6,30.3-25.2,30.3c-4.9,0-9.6-2.6-11.1-5.6c0,0-2.4,9.3-3,11.6c-1.1,4.2-4,9.5-6.1,12.8
	c4.6,1.4,9.4,2.2,14.4,2.2c26.9,0,48.7-21.8,48.7-48.7C98.3,22.7,76.5,0.9,49.6,0.9z"/>
</svg>
